<mxfile host="Electron" modified="2023-12-30T10:19:00.290Z" agent="Mozilla/5.0 (Windows NT 10.0; Win64; x64) AppleWebKit/537.36 (KHTML, like Gecko) draw.io/22.1.16 Chrome/120.0.6099.109 Electron/28.1.0 Safari/537.36" etag="WLv9yDv0lLjPSnYn_wK8" version="22.1.16" type="device">
  <diagram name="Page-1" id="gUvG4r4jfSp6b_kdzFB5">
    <mxGraphModel dx="558" dy="383" grid="1" gridSize="10" guides="1" tooltips="1" connect="1" arrows="1" fold="1" page="1" pageScale="1" pageWidth="850" pageHeight="1100" math="0" shadow="0">
      <root>
        <mxCell id="0" />
        <mxCell id="1" parent="0" />
        <mxCell id="ER6fGadgTy1CO4UheATH-6" value="&lt;div style=&quot;border-color: var(--border-color); font-family: Consolas, &amp;quot;Courier New&amp;quot;, monospace; font-size: 13px;&quot;&gt;unsigned factorial(unsigned n) {&lt;font color=&quot;#cc6600&quot;&gt;//n=11&lt;/font&gt;&lt;/div&gt;&lt;div style=&quot;border-color: var(--border-color); font-family: Consolas, &amp;quot;Courier New&amp;quot;, monospace; font-size: 13px;&quot;&gt;&amp;nbsp; &amp;nbsp; if (n == 0) {&lt;/div&gt;&lt;div style=&quot;border-color: var(--border-color); font-family: Consolas, &amp;quot;Courier New&amp;quot;, monospace; font-size: 13px;&quot;&gt;&amp;nbsp; &amp;nbsp; &amp;nbsp; &amp;nbsp; return 1;&lt;/div&gt;&lt;div style=&quot;border-color: var(--border-color); font-family: Consolas, &amp;quot;Courier New&amp;quot;, monospace; font-size: 13px;&quot;&gt;&amp;nbsp; &amp;nbsp; }&lt;/div&gt;&lt;div style=&quot;border-color: var(--border-color); font-family: Consolas, &amp;quot;Courier New&amp;quot;, monospace; font-size: 13px;&quot;&gt;&amp;nbsp; &amp;nbsp; else {&lt;/div&gt;&lt;div style=&quot;border-color: var(--border-color); font-family: Consolas, &amp;quot;Courier New&amp;quot;, monospace; font-size: 13px;&quot;&gt;&amp;nbsp; &amp;nbsp; &amp;nbsp; &amp;nbsp; &lt;font color=&quot;#cc6600&quot;&gt;return&lt;/font&gt; n * &lt;font color=&quot;#4d9900&quot;&gt;factorial(n - 1)&lt;/font&gt;;&lt;/div&gt;&lt;div style=&quot;border-color: var(--border-color); font-family: Consolas, &amp;quot;Courier New&amp;quot;, monospace; font-size: 13px;&quot;&gt;&amp;nbsp; &amp;nbsp; }&lt;/div&gt;&lt;div style=&quot;border-color: var(--border-color); font-family: Consolas, &amp;quot;Courier New&amp;quot;, monospace; font-size: 13px;&quot;&gt;}&lt;/div&gt;" style="text;html=1;align=left;verticalAlign=middle;whiteSpace=wrap;rounded=0;strokeColor=#999999;strokeWidth=1;dashed=1;" parent="1" vertex="1">
          <mxGeometry x="310" width="280" height="130" as="geometry" />
        </mxCell>
        <mxCell id="ER6fGadgTy1CO4UheATH-7" value="" style="curved=1;endArrow=classic;html=1;rounded=0;entryX=0;entryY=0.25;entryDx=0;entryDy=0;strokeColor=#4D9900;" parent="1" target="ER6fGadgTy1CO4UheATH-9" edge="1">
          <mxGeometry width="50" height="50" relative="1" as="geometry">
            <mxPoint x="471" y="81" as="sourcePoint" />
            <mxPoint x="641" y="13.999999999999943" as="targetPoint" />
            <Array as="points" />
          </mxGeometry>
        </mxCell>
        <mxCell id="ER6fGadgTy1CO4UheATH-8" value="" style="curved=1;endArrow=classic;html=1;rounded=0;entryX=0;entryY=0;entryDx=0;entryDy=0;strokeColor=#4D9900;dashed=1;" parent="1" edge="1">
          <mxGeometry width="50" height="50" relative="1" as="geometry">
            <mxPoint x="677" y="90" as="sourcePoint" />
            <mxPoint x="560" y="94" as="targetPoint" />
            <Array as="points" />
          </mxGeometry>
        </mxCell>
        <mxCell id="ER6fGadgTy1CO4UheATH-1" value="&lt;div style=&quot;border-color: var(--border-color); font-family: Consolas, &amp;quot;Courier New&amp;quot;, monospace; font-size: 13px;&quot;&gt;unsigned factorial(unsigned n) {&lt;font style=&quot;&quot; color=&quot;#cc0000&quot;&gt;//n=12&lt;/font&gt;&lt;/div&gt;&lt;div style=&quot;border-color: var(--border-color); font-family: Consolas, &amp;quot;Courier New&amp;quot;, monospace; font-size: 13px;&quot;&gt;&amp;nbsp; &amp;nbsp; if (n == 0) {&lt;/div&gt;&lt;div style=&quot;border-color: var(--border-color); font-family: Consolas, &amp;quot;Courier New&amp;quot;, monospace; font-size: 13px;&quot;&gt;&amp;nbsp; &amp;nbsp; &amp;nbsp; &amp;nbsp; return 1;&lt;/div&gt;&lt;div style=&quot;border-color: var(--border-color); font-family: Consolas, &amp;quot;Courier New&amp;quot;, monospace; font-size: 13px;&quot;&gt;&amp;nbsp; &amp;nbsp; }&lt;/div&gt;&lt;div style=&quot;border-color: var(--border-color); font-family: Consolas, &amp;quot;Courier New&amp;quot;, monospace; font-size: 13px;&quot;&gt;&amp;nbsp; &amp;nbsp; else {&lt;/div&gt;&lt;div style=&quot;border-color: var(--border-color); font-family: Consolas, &amp;quot;Courier New&amp;quot;, monospace; font-size: 13px;&quot;&gt;&amp;nbsp; &amp;nbsp; &amp;nbsp; &amp;nbsp; &lt;font color=&quot;#cc0000&quot;&gt;return&lt;/font&gt; n * &lt;font color=&quot;#cc6600&quot;&gt;factorial(n - 1)&lt;/font&gt;;&lt;/div&gt;&lt;div style=&quot;border-color: var(--border-color); font-family: Consolas, &amp;quot;Courier New&amp;quot;, monospace; font-size: 13px;&quot;&gt;&amp;nbsp; &amp;nbsp; }&lt;/div&gt;&lt;div style=&quot;border-color: var(--border-color); font-family: Consolas, &amp;quot;Courier New&amp;quot;, monospace; font-size: 13px;&quot;&gt;}&lt;/div&gt;" style="text;html=1;align=left;verticalAlign=middle;whiteSpace=wrap;rounded=0;strokeColor=#999999;strokeWidth=1;dashed=1;" parent="1" vertex="1">
          <mxGeometry width="280" height="130" as="geometry" />
        </mxCell>
        <mxCell id="ER6fGadgTy1CO4UheATH-4" value="" style="curved=1;endArrow=classic;html=1;rounded=0;entryX=0;entryY=0.25;entryDx=0;entryDy=0;strokeColor=#CC6600;" parent="1" target="ER6fGadgTy1CO4UheATH-6" edge="1">
          <mxGeometry width="50" height="50" relative="1" as="geometry">
            <mxPoint x="150" y="82" as="sourcePoint" />
            <mxPoint x="319.99999999999994" y="14.999999999999943" as="targetPoint" />
            <Array as="points" />
          </mxGeometry>
        </mxCell>
        <mxCell id="ER6fGadgTy1CO4UheATH-5" value="" style="curved=1;endArrow=classic;html=1;rounded=0;entryX=0;entryY=0;entryDx=0;entryDy=0;strokeColor=#CC6600;dashed=1;" parent="1" edge="1">
          <mxGeometry width="50" height="50" relative="1" as="geometry">
            <mxPoint x="367" y="90" as="sourcePoint" />
            <mxPoint x="249" y="94" as="targetPoint" />
            <Array as="points" />
          </mxGeometry>
        </mxCell>
        <mxCell id="ER6fGadgTy1CO4UheATH-9" value="&lt;div style=&quot;border-color: var(--border-color); font-family: Consolas, &amp;quot;Courier New&amp;quot;, monospace; font-size: 13px;&quot;&gt;unsigned factorial(unsigned n) {&lt;font color=&quot;#4d9900&quot;&gt;//n=10&lt;/font&gt;&lt;/div&gt;&lt;div style=&quot;border-color: var(--border-color); font-family: Consolas, &amp;quot;Courier New&amp;quot;, monospace; font-size: 13px;&quot;&gt;&amp;nbsp; &amp;nbsp; if (n == 0) {&lt;/div&gt;&lt;div style=&quot;border-color: var(--border-color); font-family: Consolas, &amp;quot;Courier New&amp;quot;, monospace; font-size: 13px;&quot;&gt;&amp;nbsp; &amp;nbsp; &amp;nbsp; &amp;nbsp; return 1;&lt;/div&gt;&lt;div style=&quot;border-color: var(--border-color); font-family: Consolas, &amp;quot;Courier New&amp;quot;, monospace; font-size: 13px;&quot;&gt;&amp;nbsp; &amp;nbsp; }&lt;/div&gt;&lt;div style=&quot;border-color: var(--border-color); font-family: Consolas, &amp;quot;Courier New&amp;quot;, monospace; font-size: 13px;&quot;&gt;&amp;nbsp; &amp;nbsp; else {&lt;/div&gt;&lt;div style=&quot;border-color: var(--border-color); font-family: Consolas, &amp;quot;Courier New&amp;quot;, monospace; font-size: 13px;&quot;&gt;&amp;nbsp; &amp;nbsp; &amp;nbsp; &amp;nbsp; &lt;font color=&quot;#4d9900&quot;&gt;return&lt;/font&gt; n * &lt;font color=&quot;#009999&quot;&gt;factorial(n - 1)&lt;/font&gt;;&lt;/div&gt;&lt;div style=&quot;border-color: var(--border-color); font-family: Consolas, &amp;quot;Courier New&amp;quot;, monospace; font-size: 13px;&quot;&gt;&amp;nbsp; &amp;nbsp; }&lt;/div&gt;&lt;div style=&quot;border-color: var(--border-color); font-family: Consolas, &amp;quot;Courier New&amp;quot;, monospace; font-size: 13px;&quot;&gt;}&lt;/div&gt;" style="text;html=1;align=left;verticalAlign=middle;whiteSpace=wrap;rounded=0;strokeColor=#999999;strokeWidth=1;dashed=1;" parent="1" vertex="1">
          <mxGeometry x="620" width="280" height="130" as="geometry" />
        </mxCell>
        <mxCell id="ER6fGadgTy1CO4UheATH-10" value="" style="curved=1;endArrow=classic;html=1;rounded=0;entryX=0.25;entryY=0;entryDx=0;entryDy=0;strokeColor=#009999;" parent="1" target="ER6fGadgTy1CO4UheATH-12" edge="1">
          <mxGeometry width="50" height="50" relative="1" as="geometry">
            <mxPoint x="760" y="97" as="sourcePoint" />
            <mxPoint x="690" y="170" as="targetPoint" />
            <Array as="points" />
          </mxGeometry>
        </mxCell>
        <mxCell id="ER6fGadgTy1CO4UheATH-11" value="" style="curved=1;endArrow=classic;html=1;rounded=0;strokeColor=#009999;exitX=0.5;exitY=0;exitDx=0;exitDy=0;dashed=1;" parent="1" source="ER6fGadgTy1CO4UheATH-12" edge="1">
          <mxGeometry width="50" height="50" relative="1" as="geometry">
            <mxPoint x="778.1181959564544" y="170" as="sourcePoint" />
            <mxPoint x="820" y="97" as="targetPoint" />
            <Array as="points" />
          </mxGeometry>
        </mxCell>
        <mxCell id="ER6fGadgTy1CO4UheATH-12" value="&lt;div style=&quot;border-color: var(--border-color); font-family: Consolas, &amp;quot;Courier New&amp;quot;, monospace; font-size: 13px;&quot;&gt;&lt;span style=&quot;white-space: pre;&quot;&gt;&#x9;&lt;/span&gt;... ...&lt;/div&gt;&lt;div style=&quot;border-color: var(--border-color); font-family: Consolas, &amp;quot;Courier New&amp;quot;, monospace; font-size: 13px;&quot;&gt;&lt;br&gt;&lt;/div&gt;&lt;div style=&quot;border-color: var(--border-color); font-family: Consolas, &amp;quot;Courier New&amp;quot;, monospace; font-size: 13px;&quot;&gt;&lt;span style=&quot;white-space: pre;&quot;&gt;&#x9;&lt;/span&gt;... ...&lt;br&gt;&lt;/div&gt;" style="text;html=1;align=left;verticalAlign=middle;whiteSpace=wrap;rounded=0;strokeColor=#999999;strokeWidth=1;dashed=1;" parent="1" vertex="1">
          <mxGeometry x="620" y="160" width="280" height="130" as="geometry" />
        </mxCell>
        <mxCell id="ER6fGadgTy1CO4UheATH-14" value="&lt;div style=&quot;border-color: var(--border-color); font-family: Consolas, &amp;quot;Courier New&amp;quot;, monospace; font-size: 13px;&quot;&gt;unsigned factorial(unsigned n) {&lt;font color=&quot;#0000cc&quot;&gt;//n=1&lt;/font&gt;&lt;/div&gt;&lt;div style=&quot;border-color: var(--border-color); font-family: Consolas, &amp;quot;Courier New&amp;quot;, monospace; font-size: 13px;&quot;&gt;&amp;nbsp; &amp;nbsp; if (n == 0) {&lt;/div&gt;&lt;div style=&quot;border-color: var(--border-color); font-family: Consolas, &amp;quot;Courier New&amp;quot;, monospace; font-size: 13px;&quot;&gt;&amp;nbsp; &amp;nbsp; &amp;nbsp; &amp;nbsp; return 1;&lt;/div&gt;&lt;div style=&quot;border-color: var(--border-color); font-family: Consolas, &amp;quot;Courier New&amp;quot;, monospace; font-size: 13px;&quot;&gt;&amp;nbsp; &amp;nbsp; }&lt;/div&gt;&lt;div style=&quot;border-color: var(--border-color); font-family: Consolas, &amp;quot;Courier New&amp;quot;, monospace; font-size: 13px;&quot;&gt;&amp;nbsp; &amp;nbsp; else {&lt;/div&gt;&lt;div style=&quot;border-color: var(--border-color); font-family: Consolas, &amp;quot;Courier New&amp;quot;, monospace; font-size: 13px;&quot;&gt;&amp;nbsp; &amp;nbsp; &amp;nbsp; &amp;nbsp; &lt;font color=&quot;#0000cc&quot;&gt;return&lt;/font&gt; n * &lt;font color=&quot;#cc00cc&quot;&gt;factorial(n - 1)&lt;/font&gt;;&lt;/div&gt;&lt;div style=&quot;border-color: var(--border-color); font-family: Consolas, &amp;quot;Courier New&amp;quot;, monospace; font-size: 13px;&quot;&gt;&amp;nbsp; &amp;nbsp; }&lt;/div&gt;&lt;div style=&quot;border-color: var(--border-color); font-family: Consolas, &amp;quot;Courier New&amp;quot;, monospace; font-size: 13px;&quot;&gt;}&lt;/div&gt;" style="text;html=1;align=left;verticalAlign=middle;whiteSpace=wrap;rounded=0;strokeColor=#999999;strokeWidth=1;dashed=1;" parent="1" vertex="1">
          <mxGeometry x="310" y="160" width="280" height="130" as="geometry" />
        </mxCell>
        <mxCell id="ER6fGadgTy1CO4UheATH-15" value="&lt;div style=&quot;border-color: var(--border-color); font-family: Consolas, &amp;quot;Courier New&amp;quot;, monospace; font-size: 13px;&quot;&gt;unsigned factorial(unsigned n) {&lt;font color=&quot;#cc00cc&quot;&gt;//n=0&lt;/font&gt;&lt;/div&gt;&lt;div style=&quot;border-color: var(--border-color); font-family: Consolas, &amp;quot;Courier New&amp;quot;, monospace; font-size: 13px;&quot;&gt;&amp;nbsp; &amp;nbsp; if (n == 0) {&lt;/div&gt;&lt;div style=&quot;border-color: var(--border-color); font-family: Consolas, &amp;quot;Courier New&amp;quot;, monospace; font-size: 13px;&quot;&gt;&amp;nbsp; &amp;nbsp; &amp;nbsp; &amp;nbsp; &lt;font color=&quot;#cc00cc&quot;&gt;return&lt;/font&gt; 1;&lt;/div&gt;&lt;div style=&quot;border-color: var(--border-color); font-family: Consolas, &amp;quot;Courier New&amp;quot;, monospace; font-size: 13px;&quot;&gt;&amp;nbsp; &amp;nbsp; }&lt;/div&gt;&lt;div style=&quot;border-color: var(--border-color); font-family: Consolas, &amp;quot;Courier New&amp;quot;, monospace; font-size: 13px;&quot;&gt;&amp;nbsp; &amp;nbsp; else {&lt;/div&gt;&lt;div style=&quot;border-color: var(--border-color); font-family: Consolas, &amp;quot;Courier New&amp;quot;, monospace; font-size: 13px;&quot;&gt;&amp;nbsp; &amp;nbsp; &amp;nbsp; &amp;nbsp; return n * factorial(n - 1);&lt;/div&gt;&lt;div style=&quot;border-color: var(--border-color); font-family: Consolas, &amp;quot;Courier New&amp;quot;, monospace; font-size: 13px;&quot;&gt;&amp;nbsp; &amp;nbsp; }&lt;/div&gt;&lt;div style=&quot;border-color: var(--border-color); font-family: Consolas, &amp;quot;Courier New&amp;quot;, monospace; font-size: 13px;&quot;&gt;}&lt;/div&gt;" style="text;html=1;align=left;verticalAlign=middle;whiteSpace=wrap;rounded=0;strokeColor=#999999;strokeWidth=1;dashed=1;" parent="1" vertex="1">
          <mxGeometry y="160" width="280" height="130" as="geometry" />
        </mxCell>
        <mxCell id="ER6fGadgTy1CO4UheATH-17" value="" style="curved=1;endArrow=classic;html=1;rounded=0;strokeColor=#CC00CC;entryX=1;entryY=0.25;entryDx=0;entryDy=0;" parent="1" target="ER6fGadgTy1CO4UheATH-15" edge="1">
          <mxGeometry width="50" height="50" relative="1" as="geometry">
            <mxPoint x="470" y="240" as="sourcePoint" />
            <mxPoint x="217" y="173" as="targetPoint" />
            <Array as="points" />
          </mxGeometry>
        </mxCell>
        <mxCell id="ER6fGadgTy1CO4UheATH-18" value="" style="curved=1;endArrow=classic;html=1;rounded=0;strokeColor=#CC00CC;entryX=0.5;entryY=0.692;entryDx=0;entryDy=0;entryPerimeter=0;exitX=0.286;exitY=0.385;exitDx=0;exitDy=0;exitPerimeter=0;dashed=1;" parent="1" edge="1">
          <mxGeometry width="50" height="50" relative="1" as="geometry">
            <mxPoint x="79.07999999999993" y="209.05000000000007" as="sourcePoint" />
            <mxPoint x="448" y="248.96000000000004" as="targetPoint" />
            <Array as="points" />
          </mxGeometry>
        </mxCell>
        <mxCell id="ER6fGadgTy1CO4UheATH-19" value="" style="curved=1;endArrow=classic;html=1;rounded=0;strokeColor=#0000CC;entryX=1;entryY=0.25;entryDx=0;entryDy=0;" parent="1" target="ER6fGadgTy1CO4UheATH-14" edge="1">
          <mxGeometry width="50" height="50" relative="1" as="geometry">
            <mxPoint x="790" y="240" as="sourcePoint" />
            <mxPoint x="537" y="173" as="targetPoint" />
            <Array as="points" />
          </mxGeometry>
        </mxCell>
        <mxCell id="ER6fGadgTy1CO4UheATH-20" value="" style="curved=1;endArrow=classic;html=1;rounded=0;strokeColor=#0000CC;exitX=0.286;exitY=0.769;exitDx=0;exitDy=0;exitPerimeter=0;entryX=0.429;entryY=0.846;entryDx=0;entryDy=0;entryPerimeter=0;dashed=1;" parent="1" edge="1">
          <mxGeometry width="50" height="50" relative="1" as="geometry">
            <mxPoint x="410.0799999999999" y="254.97000000000014" as="sourcePoint" />
            <mxPoint x="730.1199999999999" y="269.98" as="targetPoint" />
            <Array as="points" />
          </mxGeometry>
        </mxCell>
      </root>
    </mxGraphModel>
  </diagram>
</mxfile>
